<?xml version="1.0" standalone="no"?>
<!DOCTYPE svg PUBLIC "-//W3C//DTD SVG 20010904//EN"
 "http://www.w3.org/TR/2001/REC-SVG-20010904/DTD/svg10.dtd">
<svg version="1.0" xmlns="http://www.w3.org/2000/svg"
 width="1920.000000pt" height="1920.000000pt" viewBox="0 0 1920.000000 1920.000000"
 preserveAspectRatio="xMidYMid meet">
<metadata>
Created by potrace 1.16, written by Peter Selinger 2001-2019
</metadata>
<g transform="translate(0.000000,1920.000000) scale(0.100000,-0.100000)"
fill="#000000" stroke="none">
<path d="M3950 16043 c0 -351 3 -661 6 -690 6 -49 8 -52 42 -58 19 -3 89 -27
156 -52 67 -25 236 -85 376 -133 290 -100 688 -242 1090 -388 1184 -431 1686
-632 2185 -876 299 -146 436 -223 660 -366 379 -242 638 -456 843 -695 210
-246 325 -458 403 -745 21 -79 39 -149 39 -154 0 -6 -28 32 -61 84 -119 184
-225 307 -424 493 -472 440 -882 713 -1625 1081 -486 241 -1038 467 -2175 891
-597 223 -871 325 -1130 425 -275 105 -365 133 -370 117 -3 -9 -25 -304 -25
-339 0 -8 -314 -112 -550 -183 -417 -125 -910 -293 -910 -311 0 -16 182 -87
540 -209 483 -165 2069 -735 3210 -1153 300 -110 678 -248 840 -306 342 -124
1026 -384 1215 -463 399 -167 739 -369 1020 -605 55 -46 111 -92 125 -101 35
-24 17 -22 -117 17 -140 41 -327 114 -673 266 -382 168 -656 274 -2055 798
-1710 641 -3469 1287 -3539 1300 l-29 5 6 -100 c4 -56 7 -2322 7 -5036 l0
-4935 33 -7 c61 -13 162 -46 332 -109 94 -35 325 -116 515 -181 190 -64 698
-243 1129 -397 1000 -356 2359 -834 2521 -886 531 -171 1137 -305 1705 -376
383 -49 547 -66 556 -60 6 3 9 1517 9 4134 l-1 4128 323 5 323 5 -2 -4121 c-2
-2381 1 -4128 6 -4136 8 -12 38 -10 197 14 503 73 854 142 1139 225 343 99
1187 379 2650 880 308 105 785 268 1060 362 275 93 767 262 1094 374 326 112
595 204 597 204 2 0 4 2205 4 4900 0 2695 -1 4900 -3 4900 -2 0 -43 -14 -93
-31 -49 -16 -210 -68 -359 -113 -148 -46 -776 -240 -1395 -430 -2313 -713
-3390 -1073 -4177 -1395 -283 -115 -434 -170 -623 -226 -79 -23 -107 -28 -90
-17 13 9 85 62 159 117 454 334 953 549 2133 920 898 283 990 312 1988 615
382 116 961 294 1285 395 728 226 903 278 1057 310 125 27 138 31 138 45 0 17
-161 101 -385 202 -126 57 -349 157 -495 223 l-265 121 -3 237 c-2 181 -5 239
-15 243 -33 12 -2574 -784 -3054 -957 -488 -176 -995 -414 -1460 -685 -240
-140 -456 -293 -728 -518 -156 -129 -447 -422 -554 -558 -47 -59 -86 -106 -88
-104 -2 2 12 51 32 110 201 602 597 1030 1368 1480 371 217 904 448 1552 674
384 134 1190 377 2293 692 343 98 626 181 629 184 8 8 12 211 17 940 l5 628
-22 -5 c-12 -3 -242 -82 -512 -175 -709 -245 -693 -240 -1062 -371 -186 -66
-500 -177 -698 -246 -569 -200 -1029 -375 -1292 -491 -710 -314 -1173 -615
-1604 -1044 -322 -320 -512 -574 -679 -910 -114 -226 -176 -388 -214 -553
l-22 -98 -59 193 c-92 304 -121 383 -204 543 -111 214 -171 312 -279 455 -353
466 -752 818 -1272 1122 -517 302 -1042 532 -2043 894 -160 58 -445 162 -632
231 -547 202 -1525 553 -1539 553 -3 0 -6 -287 -6 -637z m12989 -3357 c-16
-16 -895 -357 -1572 -610 -2115 -792 -3077 -1137 -3298 -1184 -79 -17 -85 -20
-104 -55 -18 -34 -31 -41 -155 -88 -561 -215 -1020 -328 -1509 -374 -283 -26
-509 -16 -801 35 -232 41 -511 129 -733 230 -210 96 -269 137 -334 231 -31 47
-32 47 -130 69 -202 44 -326 84 -603 195 -375 149 -751 295 -1150 445 -179 67
-701 273 -1160 457 -1119 450 -1110 446 -1106 450 7 7 667 -157 826 -206 417
-127 1509 -504 2565 -886 248 -89 482 -170 521 -179 l71 -17 12 -64 c7 -35 21
-71 30 -79 25 -23 195 -101 283 -130 95 -32 228 -61 618 -136 506 -97 494 -95
780 -94 477 0 863 64 1390 230 113 36 284 87 380 115 96 28 200 61 231 74 30
13 87 31 125 40 38 8 312 96 609 195 297 98 691 227 875 285 184 59 571 183
860 277 780 254 944 306 1410 449 234 72 567 175 740 229 299 94 339 106 329
96z m-899 -1503 c0 -21 -5 -90 -10 -153 -5 -67 -10 -1464 -12 -3332 l-2 -3216
-31 -10 c-16 -6 -100 -36 -185 -67 -85 -32 -526 -182 -980 -335 -454 -153
-1075 -365 -1380 -470 -305 -105 -664 -225 -798 -266 -231 -71 -396 -130 -526
-189 l-59 -26 6 77 c4 42 7 1541 7 3329 l0 3253 138 56 c275 114 1705 639
2572 944 245 86 623 220 840 298 217 78 401 142 408 143 8 1 12 -12 12 -36z
m-11533 -53 c91 -39 278 -114 416 -166 139 -53 432 -167 652 -253 220 -87 677
-265 1015 -396 338 -131 872 -339 1185 -463 314 -123 585 -229 603 -235 l33
-11 -3 -3353 c-2 -2230 -6 -3352 -13 -3349 -5 2 -251 91 -545 199 -294 107
-744 273 -1000 367 -256 95 -730 269 -1055 387 -324 118 -785 287 -1022 376
l-433 162 0 115 c-3 1934 -4 6690 -1 6690 2 0 78 -32 168 -70z"/>
<path d="M15205 10270 c-109 -29 -488 -157 -1580 -530 -324 -111 -660 -226
-745 -255 -85 -28 -174 -62 -198 -74 -61 -31 -120 -94 -150 -160 -83 -180 39
-426 242 -486 96 -29 116 -24 582 134 1070 363 2033 695 2079 718 154 77 232
209 223 377 -4 71 -9 92 -39 147 -38 69 -99 120 -167 139 -57 15 -169 11 -247
-10z"/>
<path d="M1962 9058 c-2 -2757 1 -5018 5 -5024 4 -6 161 -66 348 -134 187 -68
372 -136 410 -153 39 -16 81 -31 94 -34 22 -5 23 -4 15 18 -5 14 -10 2134 -11
5035 l-3 5012 -73 17 c-108 26 -265 82 -522 184 -127 50 -238 91 -246 91 -13
0 -15 -557 -17 -5012z"/>
</g>
</svg>
